<svg xmlns="http://www.w3.org/2000/svg" viewBox="0 0 31 31"><path d="M1 1h7v7h-7zM12 1h3v1h1v-1h1v1h1v1h-1v1h-1v-1h-1v1h-1v-2h-1v3h1v5h2v1h4v1h-2v1h1v1h-4v-1h1v-1h-1v1h-1v-2h-2v-1h-1v-1h2v-3h-3v3h-1v-6h2v1h1zM19 1h3v1h-2v1h-1zM23 1h7v7h-7zM2 2v5h5v-5zM24 2v5h5v-5zM3 3h3v3h-3zM21 3h1v2h-1zM25 3h3v3h-3zM15 4h1v1h-1zM17 4h3v1h1v1h-3v-1h-1zM16 6h2v2h-1v-1h-1zM11 7h1v1h-1zM15 7h1v1h1v1h-2zM19 7h1v1h-1zM21 7h1v2h-1zM1 9h1v2h-1zM3 9h5v1h-2v1h-1v-1h-1v1h1v2h1v-2h2v-1h1v3h-1v-1h-1v1h1v1h-3v1h-1v-1h-1v-2h-1v-1h1zM17 9h3v1h-3zM23 9h5v1h-1v3h-2v-1h-1v-1h1v-1h-1v1h-1zM10 10h1v1h-1zM20 10h2v1h-2zM28 10h2v1h-2zM1 12h1v1h-1zM10 12h2v1h-1v5h1v1h-1v3h-1v1h-1v-1h-2v-1h1v-1h1v-2h1v-1h-1v-4h1zM28 12h1v1h-1zM13 13h1v5h-1v-3h-1v-1h1zM20 13h3v1h1v1h1v1h2v1h-2v1h-1v-2h-1v-1h-1v-1h-1v1h-1v2h-1v-1h-2v2h-1v-1h-1v-1h1v-1h3v-1h1zM24 13h1v1h-1zM27 13h1v1h-1zM2 14h1v1h1v1h1v-1h3v1h-2v1h-2v1h-2v-2h-1v-1h1zM25 14h1v1h-1zM28 14h2v1h-2zM21 15h1v2h-1zM27 15h1v1h-1zM28 16h2v1h-2zM6 17h3v1h-2v1h1v1h-3v-2h1zM18 17h1v1h-1zM20 17h1v2h-2v-1h1zM22 17h1v1h-1zM27 17h1v1h-1zM1 18h1v4h-1zM14 18h2v1h1v-1h1v1h1v1h-1v1h1v1h-4v-1h1v-1h-1v1h-1v-1h-2v-1h2zM23 18h1v1h-1zM25 18h2v1h-1v1h1v1h-1v1h1v2h-1v1h2v1h-5v1h-1v-1h-1v-1h-1v1h-4v-1h-1v-1h1v-1h2v1h-1v1h2v-1h1v-1h1v-2h3v-2h1zM29 18h1v1h-1zM21 19h2v1h-2zM28 19h1v1h-1zM3 20h2v1h1v1h-2v-1h-1zM19 20h1v1h-1zM29 20h1v1h-1zM12 21h2v1h-1v2h-1zM27 21h1v1h-1zM19 22h1v1h-1zM22 22v3h3v-3zM29 22h1v1h-1zM1 23h7v7h-7zM10 23h1v1h-1zM23 23h1v1h-1zM28 23h1v2h-1zM2 24v5h5v-5zM9 24h1v1h1v1h1v1h-2v1h-1zM3 25h3v3h-3zM13 26h1v2h-1zM15 26h1v1h-1zM20 26h1v2h-2v-1h1zM28 26h2v1h-1v2h-1zM16 27h1v1h1v1h-1v1h-2v-1h1zM23 27h3v2h-1v1h-1v-2h-1zM10 28h3v1h-3zM14 28h1v1h-1zM21 28h2v1h-2zM9 29h1v1h-1zM13 29h1v1h-1zM18 29h1v1h-1zM20 29h1v1h-1zM27 29h1v1h-1z"/></svg>