<svg xmlns="http://www.w3.org/2000/svg" viewBox="0 0 31 31"><path d="M1 1h7v7h-7zM11 1h4v1h1v-1h1v1h1v1h-1v1h-1v-1h-1v1h-1v-2h-3zM19 1h3v2h-1v-1h-2zM23 1h7v7h-7zM2 2v5h5v-5zM24 2v5h5v-5zM3 3h3v3h-3zM9 3h1v1h1v1h1v1h1v1h-1v1h-1v-2h-1v2h1v1h-2zM20 3h1v1h-1zM25 3h3v3h-3zM12 4h1v1h-1zM15 4h1v1h-1zM17 4h3v1h1v1h-3v-1h-1zM21 4h1v1h-1zM16 6h2v2h-1v-1h-1zM21 6h1v2h-1zM13 7h1v3h-1zM15 7h1v1h1v1h-2zM19 7h1v1h-1zM1 9h1v1h-1zM3 9h5v1h-1v1h-2v-1h-1v1h-1zM17 9h2v1h-2zM23 9h5v1h-2v1h3v1h1v1h-2v-1h-1v1h-1v-1h-1v-1h-2v1h-1v-1h-3v-1h4zM8 10h1v1h2v1h1v-1h1v2h-3v-1h-3v-1h1zM11 10h1v1h-1zM14 10h2v1h1v1h-2v1h-1zM29 10h1v1h-1zM4 11h1v1h2v1h-1v1h1v1h-1v3h-1v-4h-1v-1h-2v1h1v2h1v2h1v1h1v1h-1v2h-2v-1h1v-1h-1v-1h-1v3h-1v-4h1v-2h-1v-4h3zM23 12h1v1h-1zM7 13h2v1h-2zM13 13h1v2h-2v1h-1v1h1v2h-2v-1h-1v-3h2v-1h2zM15 13h4v1h-4zM20 13h3v1h1v1h1v-1h1v1h1v2h-1v-1h-3v-1h-1v-1h-1v1h-2v-1h1zM24 13h1v1h-1zM27 13h1v1h-1zM28 14h2v1h-2zM7 15h1v1h-1zM16 15h1v1h-1zM18 15h1v1h-1zM21 15h1v2h-1zM13 16h1v1h-1zM15 16h1v1h-1zM17 16h1v1h-1zM19 16h1v1h1v2h-1v-1h-2v-1h1zM7 17h1v1h-1zM16 17h1v1h-1zM22 17h1v1h-1zM24 17h1v1h-1zM27 17h2v1h1v1h-2v-1h-1zM14 18h2v1h1v1h-2v1h-1zM17 18h1v1h-1zM23 18h1v1h-1zM25 18h1v1h2v1h-1v1h-1v1h1v2h-1v1h2v1h-3v1h-1v-1h-1v1h-1v-1h-1v-1h-1v-1h-2v1h1v1h-3v-1h-1v-1h1v-1h3v-1h1v1h1v-2h3v-2h1zM7 19h1v1h-1zM9 19h1v1h1v1h-1v2h-1zM22 19h1v1h-1zM12 20h1v1h1v1h-1v1h1v1h-2v-1h-1v-1h1zM19 20h2v1h-2zM28 20h2v1h-2zM6 21h2v1h-2zM15 21h4v1h-4zM27 21h1v1h-1zM22 22v3h3v-3zM29 22h1v1h-1zM1 23h7v7h-7zM23 23h1v1h-1zM28 23h1v2h-1zM2 24v5h5v-5zM9 24h1v2h1v3h-1v-1h-1zM11 24h1v1h2v1h2v1h-2v1h-1v-2h-2zM3 25h3v3h-3zM19 26h2v2h-1v-1h-1zM28 26h2v1h-1v2h-1zM16 27h2v1h-1v1h-1zM23 27h1v1h-1zM25 27h1v2h-1v1h-1v-2h1zM14 28h1v1h1v1h-2zM21 28h2v1h-2zM9 29h1v1h-1zM11 29h2v1h-2zM17 29h4v1h-4zM27 29h1v1h-1z"/></svg>