<svg xmlns="http://www.w3.org/2000/svg" viewBox="0 0 31 31"><path d="M1 1h7v7h-7zM10 1h1v1h-1zM12 1h3v1h1v-1h1v1h1v1h-3v1h-1v1h-1v1h-2v-2h-1v4h1v-1h1v2h-3v-6h3zM19 1h3v4h-1v-3h-2zM23 1h7v7h-7zM2 2v5h5v-5zM24 2v5h5v-5zM3 3h3v3h-3zM25 3h3v3h-3zM15 4h2v1h-2zM18 4h2v1h1v1h-4v-1h1zM16 6h1v1h-1zM13 7h1v3h2v1h3v1h-4v1h-2v-1h1v-1h-1v-1h-1v-1h1zM15 7h1v1h1v-1h1v2h2v1h-4v-1h-1zM19 7h1v1h-1zM21 7h1v3h-1v-1h-1v-1h1zM1 9h1v1h-1zM3 9h5v1h-1v1h1v-1h1v1h1v-1h2v2h-1v1h-1v1h-3v1h-1v2h-1v2h-2v-1h1v-4h2v-1h-4v-1h4v-2h-1v1h-2zM23 9h5v1h-1v1h-2v-1h-1v1h-1zM20 10h1v1h-1zM29 10h1v1h-1zM1 11h1v1h-1zM22 11h1v3h1v1h1v-1h2v2h-1v1h-1v-1h-2v-1h-1v-1h-1v1h-1v-1h-5v-1h4v-1h1v1h2zM24 11h1v1h-1zM27 11h2v1h-2zM7 12v1h1v-1zM25 12h2v1h-2zM29 12h1v1h-1zM12 13h1v1h-1zM24 13h1v1h-1zM27 13h2v1h1v1h-2v-1h-1zM2 14h1v1h-1zM13 14h1v3h-1v-1h-1v-1h1zM7 15h1v1h-1zM9 15h2v1h1v1h-3v1h-3v-1h2v-1h1zM16 15h2v1h-2zM21 15h1v2h-1zM15 16h1v1h-1zM28 16h1v1h-1zM1 17h2v1h-1v4h-1zM12 17h1v2h-1zM16 17h1v1h-1zM18 17h3v2h-1v-1h-1v1h-2v-1h1zM22 17h1v1h-1zM24 17h1v1h-1zM26 17h2v1h-2zM9 18h2v2h-1v1h1v1h-1v1h-1v-1h-2v-1h1v-1h1zM14 18h2v1h1v1h-2v1h-1v-1h-1v-1h1zM23 18h1v1h-1zM25 18h1v3h2v-1h1v2h-3v1h3v2h-1v-1h-2v1h2v1h-3v1h-1v-1h-1v1h-1v-1h-1v-1h-1v-1h-1v-2h1v1h1v-2h3v-2h1zM28 18h2v1h-2zM5 19h3v1h-2v2h-3v-1h2zM19 19h1v1h1v1h-2zM22 19h1v1h-1zM27 19h1v1h-1zM12 20h1v5h-1v2h-1v-2h-1v3h-1v-4h1v-1h2zM17 20h1v1h-1zM15 21h2v1h-2zM18 21h1v1h-1zM17 22h1v2h-2v-1h1zM22 22v3h3v-3zM29 22h1v1h-1zM1 23h7v7h-7zM23 23h1v1h-1zM2 24v5h5v-5zM15 24h1v1h-1zM3 25h3v3h-3zM13 25h1v1h-1zM16 25h4v1h-4zM15 26h1v1h-1zM20 26h1v2h-1zM28 26h2v1h-1v2h-1zM12 27h1v1h-1zM16 27h1v2h-1zM18 27h1v1h-1zM23 27h1v1h-1zM25 27h1v2h-1v1h-1v-2h1zM10 28h2v1h-2zM13 28h1v1h-1zM19 28h1v1h1v1h-4v-1h2zM21 28h2v1h-2zM9 29h1v1h-1zM15 29h1v1h-1zM27 29h1v1h-1z"/></svg>