<svg xmlns="http://www.w3.org/2000/svg" viewBox="0 0 31 31"><path d="M1 1h7v7h-7zM11 1h4v1h1v-1h1v1h1v1h-1v1h2v-1h1v2h1v1h-3v-1h-3v-1h1v-1h-1v1h-1v-1h-1v1h-2v-1h1v-1h-1zM19 1h3v1h-3zM23 1h7v7h-7zM2 2v5h5v-5zM10 2h1v1h-1zM24 2v5h5v-5zM3 3h3v3h-3zM9 3h1v1h1v1h-1v1h2v2h-1v-1h-1v2h-1zM21 3h1v2h-1zM25 3h3v3h-3zM12 5h1v1h-1zM13 6h1v4h2v1h1v1h-2v1h-3v-1h-1v-1h-1v1h-3v-1h2v-1h2v-1h2zM16 6h2v2h-1v-1h-1zM21 6h1v2h-1zM15 7h1v2h-1zM19 7h1v1h-1zM1 9h1v1h1v-1h5v1h-1v1h-1v-1h-2v1h2v2h-1v-1h-1v2h2v-1h2v1h-1v1h2v-1h1v-2h1v1h1v1h1v1h-3v1h-3v1h1v1h-1v1h1v1h-2v2h-2v-2h-1v-2h1v1h1v-1h-1v-1h2v-1h-2v-1h-1v2h-1v-2h-1v-1h1v-3h-1zM16 9h6v1h-1v1h-1v-1h-4zM23 9h5v2h-1v-1h-1v1h-1v-1h-1v1h-1zM29 10h1v1h-1zM19 11h1v1h-1zM21 11h1v1h-1zM24 11h1v1h-1zM28 11h1v1h-1zM25 12h1v1h-1zM15 13h2v1h-2zM18 13h5v1h3v-1h3v1h1v1h-2v-1h-1v1h1v1h-2v-1h-2v1h-1v-1h-1v-1h-1v1h-1v-1h-1v1h-2v-1h1zM13 15h1v3h2v1h3v-1h1v-1h1v2h-1v1h-2v1h-1v1h-2v-1h1v-1h-1v1h-1v2h-1v-3h1v-1h-1v-2h-2v1h-2v-1h1v-1h3zM16 15h1v1h-1zM19 15h1v1h-1zM21 15h1v2h-1zM15 16h1v1h-1zM17 16h1v1h1v1h-3v-1h1zM25 16h1v1h-1zM22 17h1v1h-1zM26 17h3v1h-3zM1 18h1v4h-1zM11 18h1v1h1v1h-2v2h-1v1h-1v-1h-2v-1h1v-1h2v-1h1zM23 18h3v3h2v1h2v1h-3v-1h-1v1h1v1h-1v1h2v1h-3v1h-1v-1h-1v1h-1v-1h-1v-1h-1v1h-4v-1h-1v-1h1v-1h1v1h1v1h1v-2h2v-2h3v-2h-1zM29 18h1v1h-1zM22 19h1v1h-1zM27 19h2v1h-2zM20 20h1v1h-1zM18 21h2v1h-1v1h-2v-1h1zM11 22h1v1h-1zM22 22v3h3v-3zM1 23h7v7h-7zM10 23h1v1h-1zM12 23h1v1h-1zM23 23h1v1h-1zM2 24v5h5v-5zM9 24h1v2h1v1h1v1h-3zM11 24h1v1h-1zM13 24h1v2h2v1h3v1h-1v1h-1v1h-3v-1h-1v-2h-1v-1h1zM28 24h1v1h-1zM3 25h3v3h-3zM20 26h1v2h-1zM28 26h2v1h-1v2h-1zM23 27h1v1h-1zM25 27h1v2h-1v1h-1v-2h1zM15 28v1h1v-1zM21 28h2v1h-2zM9 29h2v1h-2zM12 29h1v1h-1zM18 29h1v1h-1zM20 29h1v1h-1zM27 29h1v1h-1z"/></svg>