<svg xmlns="http://www.w3.org/2000/svg" viewBox="0 0 31 31"><path d="M1 1h7v7h-7zM13 1h2v1h1v-1h1v1h1v2h1v-2h1v1h1v-1h1v3h-1v-1h-1v1h1v1h-3v-1h-3v-1h1v-1h-1v1h-4v-1h1v-1h1zM18 1h1v1h-1zM20 1h1v1h-1zM23 1h7v7h-7zM2 2v5h5v-5zM10 2h1v1h-1zM24 2v5h5v-5zM3 3h3v3h-3zM9 3h1v5h1v-1h1v1h1v1h-1v2h-1v1h-1v-3h-1zM25 3h3v3h-3zM12 5h2v3h-1v-2h-1zM16 6h2v2h-1v-1h-1zM15 7h1v2h-1zM19 7h1v1h-1zM21 7h1v1h-1zM1 9h1v1h1v-1h5v1h-4v2h-1v-1h-2zM16 9h1v1h-1zM18 9h2v1h-2zM21 9h1v1h-1zM23 9h5v1h-1v1h-1v2h-1v1h-1v-1h-1v1h1v1h1v1h-2v-1h-1v2h-1v-2h-1v2h1v2h-1v-1h-4v-1h-1v-1h1v-1h1v-1h1v1h1v-1h3v-2h-1v-1h1v-1h1zM8 10h1v3h-1v-1h-1v-1h1zM13 10h3v1h1v1h1v1h-1v1h-2v-1h1v-1h-1v1h-1v-1h-1v1h-1v1h1v-1h1v2h-1v1h-1v-1h-1v-3h1v-1h1zM17 10h1v1h-1zM20 10h1v1h-1zM28 10h2v1h-2zM18 11h2v2h-1v-1h-1zM23 11v1h1v-1zM1 12h1v1h-1zM4 12h3v1h1v1h-1v1h1v-1h1v1h1v2h-1v-1h-3v1h-1v-2h1v-1h-1v1h-1v1h-2v-1h-1v-1h3zM9 13h1v1h-1zM18 13h1v1h-1zM26 13h3v1h-2v1h2v1h-2v1h-2v-1h1v-1h-1v-1h1zM29 14h1v1h-1zM13 16h1v2h2v1h2v1h-1v1h-1v-1h-1v1h-1v1h-1v-3h-1v-1h1zM18 16v1h1v-1zM1 17h1v1h1v-1h1v1h1v1h-3v3h-1zM6 17h3v1h1v-1h1v2h1v2h-2v2h-1v-2h-1v-1h-1v-1h1v-1h-1v1h-1zM22 17h1v1h-1zM27 17h1v1h-1zM23 18h3v1h3v1h-3v1h3v1h1v1h-2v-1h-1v1h-1v2h2v1h-3v1h-1v-1h-1v1h-1v-1h-1v-1h-1v-1h-1v-2h1v1h1v-2h3v-1h1v-1h-2zM29 18h1v1h-1zM5 19h1v2h2v1h-5v-2h1v1h1zM9 19v1h1v-1zM19 19h1v1h-1zM22 19h1v1h-1zM20 20h1v1h-1zM15 21h1v1h-1zM17 21h2v1h-2zM11 22h1v1h1v1h1v3h1v-1h1v1h4v-1h1v2h-1v1h-1v-1h-2v2h-2v-1h-1v-1h-1v-2h-1v1h-2v1h-1v-4h1v-1h1zM22 22v3h3v-3zM1 23h7v7h-7zM16 23h1v1h-1zM23 23h1v1h-1zM2 24v5h5v-5zM11 24v1h-1v1h1v-1h1v-1zM15 24h1v1h-1zM28 24h1v1h-1zM3 25h3v3h-3zM16 25h4v1h-4zM28 26h2v1h-1v2h-1zM23 27h1v1h-1zM25 27h1v2h-1v1h-1v-2h1zM10 28h1v1h-1zM12 28h1v1h1v1h-2zM21 28h2v1h-2zM9 29h1v1h-1zM18 29h1v1h-1zM20 29h1v1h-1zM27 29h1v1h-1z"/></svg>