<svg xmlns="http://www.w3.org/2000/svg" viewBox="0 0 31 31"><path d="M1 1h7v7h-7zM12 1h1v1h1v-1h1v1h1v-1h1v2h-2v1h-2v-1h-1v1h-1v-1h-1v-1h2zM20 1h1v1h-1zM23 1h7v7h-7zM2 2v5h5v-5zM18 2h1v1h-1zM21 2h1v1h-1zM24 2v5h5v-5zM3 3h3v3h-3zM9 3h1v1h1v1h-1v4h-1zM17 3h1v1h-1zM20 3h1v1h-1zM25 3h3v3h-3zM12 4h1v1h1v5h2v1h1v-1h1v2h-1v2h-2v-1h1v-1h-1v1h-1v-1h-2v1h-1v-1h-2v1h-1v-1h-1v-1h1v-1h1v1h2v-1h1v-1h-1v-4h1zM15 4h2v1h-2zM18 4h2v1h2v1h-4v2h-1v-1h-1v-1h1v-1h1zM12 7v1h1v-1zM15 7h1v2h-1zM19 7h1v1h-1zM21 7h1v1h-1zM20 8h1v1h-1zM1 9h1v3h1v1h-2zM3 9h5v1h-2v3h-2v-2h-1zM10 9h1v1h-1zM16 9h1v1h-1zM18 9h2v1h-2zM21 9h1v1h-1zM23 9h5v2h-1v-1h-1v1h-1v-1h-1v2h-2v-1h1zM20 10h1v1h-1zM29 10h1v1h-1zM26 11h1v1h-1zM28 11h1v1h1v1h-1v1h1v1h-2v-1h-1v1h-2v-1h1v-1h2zM24 12h2v1h-1v1h-1zM7 13h1v1h-1zM9 13h1v1h2v4h-1v-1h-1v-1h1v-1h-2zM18 13h5v1h1v1h1v1h-2v-1h-1v-1h-1v1h-1v-1h-2zM2 14h2v1h-1v1h-2v-1h1zM5 14h2v1h-1v1h1v1h-1v1h-1v-1h-2v-1h1v-1h1zM13 14h1v1h-1zM17 14h1v1h-1zM7 15h2v2h-1v-1h-1zM16 15h1v2h-2v-1h1zM18 15h2v1h-2zM21 15h1v2h-1zM27 15h1v1h-1zM13 16h1v1h-1zM25 16h1v1h-1zM28 16h2v1h-1v1h-3v-1h2zM7 17h1v1h-1zM17 17h4v2h-1v-1h-3zM22 17h1v1h-1zM1 18h3v1h-2v3h-1zM8 18h1v2h-2v1h1v1h-5v-1h1v-2h4zM12 18h1v1h1v-1h2v1h1v2h2v-2h1v1h1v1h-1v1h-5v-1h1v-1h-1v1h-1v-1h-2v2h1v1h1v7h-5v-1h1v-1h-1v-4h1v3h1v1h1v1h1v-1h-1v-2h1v-1h-1v-1h-1v-3h-2v-1h2v-1h1zM23 18h3v3h2v1h-2v3h2v1h-3v1h-1v-1h-1v1h-1v-1h-1v-1h-1v-1h-4v-1h5v-2h4v-1h-1v-1h-1zM29 18h1v1h-1zM22 19h1v1h-1zM28 19h1v2h-1zM13 21h1v1h-1zM9 22h1v1h-1zM22 22v3h3v-3zM28 22h2v1h-2zM1 23h7v7h-7zM23 23h1v1h-1zM2 24v5h5v-5zM15 24h1v1h-1zM28 24h1v1h-1zM3 25h3v3h-3zM16 25h3v1h-3zM15 26h1v1h2v1h-2v1h5v1h-6zM19 26h2v2h-2zM28 26h2v1h-1v2h-1zM23 27h1v1h-1zM25 27h1v2h-1v1h-1v-2h1zM21 28h2v1h-2zM27 29h1v1h-1z"/></svg>