<svg xmlns="http://www.w3.org/2000/svg" viewBox="0 0 31 31"><path d="M1 1h7v7h-7zM11 1h2v1h1v-1h1v1h1v-1h1v1h1v2h2v1h1v1h-3v-1h-3v-1h1v-1h-1v1h-2v-1h-1v-1h-1zM19 1h3v1h-3zM23 1h7v7h-7zM2 2v5h5v-5zM24 2v5h5v-5zM3 3h3v3h-3zM9 3h2v2h-1v1h2v-2h1v1h1v1h-1v1h-1v2h2v1h-1v1h-1v1h1v1h-4v-1h1v-1h1v-2h-2zM21 3h1v2h-1zM25 3h3v3h-3zM16 6h2v2h-1v-1h-1zM21 6h1v4h-1zM10 7v1h1v-1zM13 7h1v1h-1zM15 7h1v1h1v1h2v1h-3v-1h-1zM19 7h1v1h-1zM1 9h1v2h1v1h1v1h-1v1h-1v-1h-1zM3 9h5v1h-2v3h-1v-3h-2zM23 9h5v1h-1v1h-1v1h-1v-1h-2v1h-1v-2h1zM14 10h2v1h1v1h1v1h-1v1h-2v-1h1v-1h-1v1h-1zM19 10h2v1h-1v1h1v1h-1v1h-2v-1h1v-1h-1v-1h1zM29 10h1v1h-1zM7 11h1v1h-1zM27 11h2v1h1v1h-1v1h1v1h-2v-1h-1v-1h1v-1h-1zM23 12h1v1h-1zM26 12h1v1h-1zM7 13h2v1h-2zM13 13h1v3h-2v1h-2v-1h1v-1h2zM22 13h1v1h1v2h-1v-1h-1v2h-1v-2h-1v-1h2zM24 13h1v1h-1zM9 14h1v1h-1zM17 14h1v1h1v1h-2v1h-2v-1h1v-1h1zM25 14h2v1h-1v2h-2v-1h1zM3 15h2v1h-1v1h-1zM7 15h2v3h2v2h1v2h-1v-1h-1v-2h-1v2h-1v-1h-1v-1h1v-1h-2v-1h2v-1h-1zM5 16h1v1h-1zM1 17h2v1h-1v4h-1zM4 17h1v1h-1zM12 17h1v2h1v-1h2v1h1v1h1v1h1v-1h-1v-1h2v1h1v1h-1v1h-1v1h-1v-1h-3v-1h1v-1h-1v1h-1v-1h-2zM17 17h4v2h-1v-1h-3zM22 17h1v1h-1zM26 17h2v1h-1v3h-1v2h3v2h-1v-1h-2v1h2v1h-3v1h-1v-1h-1v1h-1v-1h-1v-1h-1v1h-4v-1h-1v-1h1v-1h2v2h1v-2h2v-2h3v-2h-1v-1h3zM28 18h2v1h-2zM5 19h1v1h1v1h1v1h-2v-1h-1zM22 19h1v1h-1zM3 20h1v1h1v1h-2zM28 20h1v2h-2v-1h1zM9 21h1v2h-1zM22 22v3h3v-3zM29 22h1v1h-1zM1 23h7v7h-7zM23 23h1v1h-1zM2 24v5h5v-5zM9 24h2v1h-1v2h2v1h1v1h1v-1h1v1h1v-1h-1v-1h-1v1h-1v-2h3v1h1v1h1v1h-1v1h-6v-2h-2zM3 25h3v3h-3zM11 25h1v1h-1zM20 26h1v2h-1zM28 26h2v1h-1v2h-1zM18 27h1v1h-1zM23 27h1v1h-1zM25 27h1v2h-1v1h-1v-2h1zM19 28h1v1h-1zM21 28h2v1h-2zM9 29h1v1h-1zM18 29h1v1h-1zM20 29h1v1h-1zM27 29h1v1h-1z"/></svg>