<svg xmlns="http://www.w3.org/2000/svg" viewBox="0 0 31 31"><path d="M1 1h7v7h-7zM10 1h2v2h1v-2h2v1h1v-1h1v2h-2v1h-1v1h-1v1h-1v-2h-1v-2h-1zM20 1h1v1h-1zM23 1h7v7h-7zM2 2v5h5v-5zM19 2h1v3h1v1h-3v3h1v1h-3v-1h-1v-2h1v1h1v-1h-1v-1h1v-1h1v-1h1zM21 2h1v1h-1zM24 2v5h5v-5zM3 3h3v3h-3zM9 3h1v2h1v1h1v2h-1v-1h-1v2h-1zM25 3h3v3h-3zM15 4h2v1h-2zM21 4h1v1h-1zM13 6h1v4h-2v-2h1zM19 7h1v1h-1zM21 7h1v1h-1zM1 9h1v1h-1zM3 9h5v1h-1v1h1v1h-2v-2h-1v2h-3v6h1v1h-1v3h-1v-11h1v-1h1v1h1v-1h-1zM20 9h2v1h-1v1h-2v-1h1zM23 9h5v1h-1v1h-1v2h-1v1h-1v-1h-1v-1h1v-1h1v-1h-1v1h-1zM9 10h3v2h-2v-1h-1zM14 10h2v1h2v1h-1v1h2v1h-4v-1h1v-1h-1v1h-1v1h-2v1h-1v-2h1v-1h1v-1h1zM29 10h1v1h-1zM28 11h1v1h1v1h-1v1h1v1h-3v-1h-1v-1h2zM5 12h1v1h2v1h-2v1h2v1h-3v2h-1v-1h-1v-1h1v-1h1zM8 12h1v1h-1zM20 13h3v1h1v1h1v1h-2v-1h-1v-1h-1v1h-2v-1h1zM3 14h1v1h-1zM9 14h1v1h1v1h1v1h1v2h-1v1h-1v-1h-1v-3h-1zM25 14h1v1h-1zM12 15h2v2h-1v-1h-1zM16 15h1v1h-1zM18 15h1v1h-1zM21 15h1v2h-1zM26 15h1v1h-1zM15 16h1v1h-1zM17 16h1v1h1v-1h1v1h1v2h-1v-1h-4v-1h1zM25 16h1v1h-1zM28 16h2v1h-2zM7 17h1v1h-1zM22 17h1v1h-1zM26 17h2v1h-1v1h2v2h1v2h-1v-1h-2v1h-1v2h2v1h-3v1h-1v-1h-1v1h-1v-1h-1v-1h-2v-1h-1v-1h1v-1h1v1h1v-2h3v-1h1v-1h-2v-1h3zM5 18h1v2h-1v2h-1v-1h-1v-2h2zM8 18h1v1h1v1h-1v1h-1v-1h-1v-1h1zM14 18h2v1h2v2h-1v1h-2v-1h1v-1h-1v1h-1zM29 18h1v1h-1zM22 19h1v1h-1zM10 20h1v1h-1zM12 20h1v2h1v1h-1v1h1v1h-2v1h-1v1h-1v1h-1v-4h1v1h1v-2h-2v-2h1v1h2zM19 20h2v1h-2zM26 20v1h2v-1zM6 21h2v1h-2zM18 21h1v1h-1zM17 22h1v1h-1zM22 22v3h3v-3zM1 23h7v7h-7zM16 23h1v1h-1zM23 23h1v1h-1zM27 23h2v2h-1v-1h-1zM2 24v5h5v-5zM15 24h1v1h-1zM3 25h3v3h-3zM16 25h3v1h-3zM12 26h4v1h1v1h1v1h-1v1h-3v-1h2v-1h-2v-1h-2zM19 26h2v2h-2zM28 26h2v1h-1v2h-1zM23 27h1v1h-1zM25 27h1v2h-1v1h-1v-2h1zM11 28h2v2h-1v-1h-1zM21 28h2v1h-2zM9 29h1v1h-1zM18 29h1v1h-1zM20 29h1v1h-1zM27 29h1v1h-1z"/></svg>