<svg xmlns="http://www.w3.org/2000/svg" viewBox="0 0 31 31"><path d="M1 1h7v7h-7zM10 1h2v1h-2zM13 1h2v1h1v-1h1v2h1v1h-1v1h-2v-1h1v-1h-1v1h-4v2h-1v3h-1v-6h3v-1h1v1h1v-1h-1zM19 1h3v1h-3zM23 1h7v7h-7zM2 2v5h5v-5zM18 2h1v1h-1zM24 2v5h5v-5zM3 3h3v3h-3zM19 3h2v1h-1v1h2v1h-4v3h1v1h-3v-1h-1v-2h1v1h1v-1h-1v-1h1v-1h1v-1h1zM25 3h3v3h-3zM12 5h1v1h-1zM11 7h1v2h-1zM13 7h1v1h-1zM19 7h1v1h-1zM21 7h1v2h-1zM1 9h1v3h-1zM3 9h5v1h-1v1h-1v1h-1v1h-1v-1h-1v-1h1v-1h-1zM10 9h1v2h1v2h-1v1h-1v-3h-1v-1h1zM23 9h5v2h-1v-1h-1v1h-7v-1h4zM14 10h2v1h1v1h-2v1h-1v-1h-1v-1h1zM29 10h1v1h-1zM7 11h2v1h-2zM28 11h1v1h-1zM6 12h1v1h2v1h-3v1h-1v-2h1zM17 12h1v1h-1zM19 12h2v1h-2zM22 12h4v1h-3v1h3v1h-1v1h-2v-1h-1v2h-1v-2h-2v-1h3zM29 12h1v1h-1zM1 13h1v1h2v1h-1v1h-1v-1h-1zM13 13h1v2h-1v1h1v2h2v1h2v2h-1v1h-2v-1h1v-1h-1v1h-1v-2h-1v2h-1v-1h-1v-1h1v-1h1v-1h-1v-1h-2v-1h1v-1h2zM15 13h2v1h-2zM18 13h1v1h-1zM26 13h3v1h-3zM9 14h1v1h-1zM17 14h1v1h1v1h-3v-1h1zM29 14h1v1h-1zM4 15h1v1h-1zM7 15h1v1h-1zM28 15h1v1h-1zM9 16h1v2h-1zM15 16h1v1h-1zM19 16h1v1h1v2h-1v-1h-1v1h-1v-1h-2v-1h3zM25 16h1v1h-1zM3 17h1v1h-1zM5 17h1v2h-1zM7 17h1v1h-1zM22 17h1v1h-1zM26 17h3v1h1v1h-2v-1h-1v2h-1v-1h-3v-1h3zM1 18h2v1h-1v3h-1zM8 18h1v1h-1zM10 18h1v1h-1zM6 19h2v1h-1v1h-1zM9 19h1v1h1v1h-3v-1h1zM19 19h1v1h1v1h-1v1h-1v1h-1v2h1v-2h2v-2h4v-1h1v1h2v1h-2v3h2v1h-3v1h-1v-1h-1v1h-1v-1h-1v-1h-1v1h-4v-1h1v-1h-1v-1h1v-1h1v-1h1zM22 19h1v1h-1zM3 20h1v1h-1zM28 20h1v1h-1zM7 21h1v1h-1zM11 21h1v1h2v3h-1v2h1v1h2v-1h4v-1h1v2h-1v1h1v1h-4v-1h2v-1h-2v1h-1v1h-4v-1h1v-1h-2v1h-1v-1h-1v-4h1v-1h1v1h2v-1h-2zM9 22h1v1h-1zM22 22v3h3v-3zM29 22h1v1h-1zM1 23h7v7h-7zM23 23h1v1h-1zM28 23h1v2h-1zM2 24v5h5v-5zM15 24h1v1h-1zM3 25h3v3h-3zM10 25v2h2v-2zM14 26h2v1h-2zM28 26h2v1h-1v2h-1zM23 27h1v1h-1zM25 27h1v2h-1v1h-1v-2h1zM21 28h2v1h-2zM9 29h1v1h-1zM27 29h1v1h-1z"/></svg>