<svg xmlns="http://www.w3.org/2000/svg" viewBox="0 0 31 31"><path d="M1 1h7v7h-7zM12 1h3v1h1v-1h1v1h1v2h1v-2h1v1h1v-1h1v3h-1v-1h-1v1h1v1h-3v-1h-3v-1h1v-1h-1v1h-1v-1h-2zM18 1h1v1h-1zM20 1h1v1h-1zM23 1h7v7h-7zM2 2v5h5v-5zM24 2v5h5v-5zM3 3h3v3h-3zM9 3h1v1h1v1h1v3h-1v-2h-1v3h-1zM11 3h1v1h-1zM25 3h3v3h-3zM12 4h2v1h-2zM16 6h2v2h-1v-1h-1zM13 7h1v3h2v1h1v1h1v1h-1v1h-2v-1h1v-1h-1v1h-1v1h-1v-1h-3v-1h-1v-1h-1v-1h4v2h2v-1h-1v-1h-1v-1h1zM15 7h1v2h-1zM19 7h1v1h-1zM21 7h1v1h-1zM1 9h1v2h-1zM3 9h5v1h-2v2h1v1h1v1h-3v-2h-1v-1h1v-1h-2zM16 9h1v1h-1zM18 9h2v1h-2zM21 9h1v1h-1zM23 9h5v1h-2v1h-1v-1h-1v1h-1zM17 10h1v1h-1zM20 10h1v1h-1zM28 10h2v1h-2zM2 11h1v1h-1zM7 11h1v1h-1zM18 11h2v2h-1v-1h-1zM21 11h2v1h-2zM26 11h2v1h-1v1h-2v1h-1v-1h-1v-1h3zM1 12h1v1h-1zM28 12h1v2h-2v-1h1zM2 13h2v1h1v1h-1v2h-1v-1h-1v-1h-1v-1h1zM18 13h1v1h-1zM22 13h1v1h1v1h1v1h-2v-1h-1v2h-1v-2h-1v2h1v2h-1v-1h-4v-1h-1v-1h1v-1h1v-1h1v1h1v-1h3zM8 14h3v1h-3zM12 14h1v1h-1zM25 14h2v1h-2zM29 14h1v1h-1zM5 15h3v1h-2v1h-1zM11 15h1v1h-1zM27 15h2v1h-2zM8 16h2v1h1v1h-4v-1h1zM12 16h2v2h-1v1h-1zM18 16v1h1v-1zM25 16h2v1h-2zM22 17h1v1h-1zM27 17h3v2h-1v-1h-2zM1 18h3v2h1v1h3v1h-4v-1h-1v-2h-1v3h-1zM14 18h2v1h2v1h-1v1h-1v-1h-1v1h-1v1h-1v-1h-1v-1h1v-1h1zM23 18h4v2h-1v1h2v1h-2v3h2v1h-3v1h-1v-1h-1v1h-1v-1h-1v-1h-1v-1h-1v-2h1v1h1v-2h3v-1h1v-1h-2zM7 19h1v1h-1zM10 19h1v1h-1zM19 19h1v1h-1zM22 19h1v1h-1zM28 19h1v1h-1zM9 20h1v3h-1zM20 20h1v1h-1zM29 20h1v1h-1zM11 21h1v1h-1zM15 21h1v1h-1zM17 21h2v1h-2zM12 22h1v2h-1zM22 22v3h3v-3zM29 22h1v1h-1zM1 23h7v7h-7zM16 23h1v1h-1zM23 23h1v1h-1zM27 23h2v2h-1v-1h-1zM2 24v5h5v-5zM9 24h3v1h-2v2h1v2h2v-1h1v2h-5v-1h1v-1h-1zM13 24h1v1h-1zM15 24h1v1h-1zM3 25h3v3h-3zM16 25h4v1h-4zM12 26h1v1h-1zM14 26h2v1h-1v1h-1zM20 26h1v2h-1v1h-1v-1h-2v2h-2v-2h1v-1h4zM28 26h2v1h-1v2h-1zM23 27h1v1h-1zM25 27h1v2h-1v1h-1v-2h1zM21 28h2v1h-2zM18 29h1v1h-1zM20 29h1v1h-1zM27 29h1v1h-1z"/></svg>