<svg xmlns="http://www.w3.org/2000/svg" viewBox="0 0 31 31"><path d="M1 1h7v7h-7zM13 1h2v1h1v-1h1v1h2v1h-4v1h-1v1h-1v2h-1v-3h-2v4h1v-1h1v1h1v1h1v1h-1v3h-1v-3h-2v-1h-1v-6h2v-1h2v1h1v-1h-1zM20 1h1v1h-1zM23 1h7v7h-7zM2 2v5h5v-5zM24 2v5h5v-5zM3 3h3v3h-3zM21 3h1v2h-1zM25 3h3v3h-3zM15 4h5v1h1v1h-3v-1h-3zM16 6h1v1h-1zM21 6h1v3h-1zM13 7h1v1h-1zM15 7h1v1h1v-1h1v2h2v1h-1v1h-1v-1h-2v-1h-1zM19 7h1v1h-1zM1 9h1v1h-1zM3 9h5v1h-3v3h-1v2h-1v1h-1v1h-1v-2h1v-1h1v-1h-1v-1h-1v-1h3v-1h-1zM23 9h5v1h-2v1h2v1h-2v1h-3v1h3v1h1v2h-2v-1h-2v-1h-1v-1h-1v1h-2v-1h1v-1h2v-1h-1v-1h-1v-1h3zM9 10h1v1h1v1h-1v1h1v1h-2zM14 10h2v1h1v1h1v1h1v1h-4v-1h1v-1h-1v1h-1zM28 10h2v1h-2zM6 11h2v1h-1v1h1v1h-2zM19 11h1v1h-1zM23 11v1h1v-1zM1 13h1v1h-1zM26 13h3v1h1v1h-2v-1h-2zM11 14h2v1h-2zM5 15h3v1h-1v1h-2v3h1v-2h1v1h1v1h-1v1h2v1h-3v-1h-1v1h-2v-1h1v-1h-1v-1h-1v3h-1v-4h1v-1h1v1h1v-2h1zM10 15h1v4h-1v-1h-1v-1h1zM13 15h1v3h2v1h1v1h-2v1h-1v-1h-2v-1h1v-1h-1v-1h1zM16 15h3v1h-1v1h-1v1h-1v-1h-1v-1h1zM21 15h1v2h-1zM19 16h1v1h-1zM7 17h1v1h-1zM18 17h1v1h-1zM20 17h1v2h-1v1h1v1h-1v1h-2v-1h1v-1h-1v-1h1v-1h1zM22 17h1v1h-1zM27 17h1v1h-1zM8 18h1v1h-1zM17 18h1v1h-1zM23 18h4v1h-1v2h3v1h-3v1h1v1h-1v1h2v1h-3v1h-1v-1h-1v1h-1v-1h-1v-1h-1v-1h-1v-1h2v-2h4v-1h-1v-1h-1zM29 18h1v1h-1zM22 19h1v1h-1zM28 19h1v1h-1zM9 20h1v1h-1zM17 20h1v1h-1zM12 21h1v3h-1v-1h-1v1h-1v-1h-1v-1h3zM15 21h2v1h-2zM17 22h1v2h-2v-1h1zM22 22v3h3v-3zM29 22h1v1h-1zM1 23h7v7h-7zM23 23h1v1h-1zM28 23h1v2h-1zM2 24v5h5v-5zM9 24h1v1h3v-1h1v2h2v1h-3v-1h-1v1h-1v-1h-1v2h-1zM15 24h1v1h-1zM3 25h3v3h-3zM16 25h4v1h-4zM20 26h1v2h-1zM28 26h2v1h-1v2h-1zM16 27h3v1h-1v1h3v1h-7v-1h-1v-1h3zM23 27h1v1h-1zM25 27h1v2h-1v1h-1v-2h1zM11 28h1v1h-1zM21 28h2v1h-2zM9 29h2v1h-2zM12 29h1v1h-1zM27 29h1v1h-1z"/></svg>